<?xml version="1.0" encoding="iso-8859-1"?>
<!-- Generator: Adobe Illustrator 19.0.0, SVG Export Plug-In . SVG Version: 6.00 Build 0)  -->
<svg version="1.1" id="Capa_1" xmlns="http://www.w3.org/2000/svg" xmlns:xlink="http://www.w3.org/1999/xlink" x="0px" y="0px"
	 viewBox="0 0 512 512" style="enable-background:new 0 0 512 512;" xml:space="preserve">
<path style="fill:#CAE8F9;" d="M484.5,120H27.898L0,150v317c0,24.901,20.098,45,45,45h422c24.902,0,45-20.099,45-45V150L484.5,120z"
	/>
<path style="fill:#787780;" d="M467,0H45C20.098,0,0,20.099,0,45v105h512V45C512,20.099,491.902,0,467,0z"/>
<path style="fill:#B7E0F6;" d="M512,150v317c0,24.901-20.098,45-45,45H256V120h228.5L512,150z"/>
<path style="fill:#57555C;" d="M512,45v105H256V0h211C491.902,0,512,20.099,512,45z"/>
<path style="fill:#17ACE8;" d="M155.395,387.605l-60-60c-5.859-5.859-5.859-15.352,0-21.211l60-60
	c5.859-5.859,15.352-5.859,21.211,0s5.859,15.352,0,21.211L127.211,317l49.395,49.395c5.859,5.859,5.859,15.352,0,21.211
	C170.746,393.465,161.254,393.465,155.395,387.605z"/>
<path style="fill:#1689FC;" d="M335.395,387.605c-5.859-5.859-5.859-15.352,0-21.211L384.789,317l-49.395-49.395
	c-5.859-5.859-5.859-15.352,0-21.211s15.352-5.859,21.211,0l60,60c5.859,5.859,5.859,15.352,0,21.211l-60,60
	C350.746,393.465,341.254,393.465,335.395,387.605z"/>
<path style="fill:#17ACE8;" d="M300.099,231.799L256,364.1l-15.901,47.699c-2.399,7.8-10.8,12.001-18.896,9.3
	c-7.8-2.399-12.004-11.1-9.302-18.898L256,269.9l15.901-47.699c2.399-7.8,11.1-12.001,18.896-9.3
	C298.598,215.3,302.802,224.001,300.099,231.799z"/>
<g>
	<path style="fill:#CAE8F9;" d="M106,90H76c-8.291,0-15-6.709-15-15s6.709-15,15-15h30c8.291,0,15,6.709,15,15S114.291,90,106,90z"
		/>
	<path style="fill:#CAE8F9;" d="M196,90h-30c-8.291,0-15-6.709-15-15s6.709-15,15-15h30c8.291,0,15,6.709,15,15S204.291,90,196,90z"
		/>
	<path style="fill:#CAE8F9;" d="M301,75c0,8.401-6.599,15-15,15h-30c-8.401,0-15-6.599-15-15s6.599-15,15-15h30
		C294.401,60,301,66.599,301,75z"/>
</g>
<path style="fill:#B7E0F6;" d="M286,90h-30V60h30c8.401,0,15,6.599,15,15S294.401,90,286,90z"/>
<path style="fill:#1689FC;" d="M300.099,231.799L256,364.1v-94.2l15.901-47.699c2.399-7.8,11.1-12.001,18.896-9.3
	C298.598,215.3,302.802,224.001,300.099,231.799z"/>
<g>
</g>
<g>
</g>
<g>
</g>
<g>
</g>
<g>
</g>
<g>
</g>
<g>
</g>
<g>
</g>
<g>
</g>
<g>
</g>
<g>
</g>
<g>
</g>
<g>
</g>
<g>
</g>
<g>
</g>
</svg>
